<svg viewBox="150 40 380 400" xmlns="http://www.w3.org/2000/svg">
  <defs>
    <clipPath id="b">
      <path d="M 340 60 L 490 210 L 478 335 L 418 415 L 262 415 L 202 335 L 190 210 Z"/>
    </clipPath>
  </defs>
  <path d="M 340 60 L 490 210 L 478 335 L 418 415 L 262 415 L 202 335 L 190 210 Z" fill="#2E94D9"/>
  <path d="M 340 60 L 190 210 L 202 335 L 262 415 L 340 260 Z" fill="#1A5E96"/>
  <path d="M 340 60 L 490 210 L 340 260 Z" fill="#6FB8E8"/>
  <path d="M 340 260 L 490 210 L 478 335 L 418 415 Z" fill="#4AA3DF"/>
  <g clip-path="url(#b)">
    <g stroke="#FFFFFF" stroke-width="3" opacity="0.95" stroke-linecap="round" fill="none">
      <line x1="295" y1="130" x2="375" y2="180"/>
      <line x1="375" y1="180" x2="300" y2="245"/>
      <line x1="300" y1="245" x2="385" y2="305"/>
      <line x1="385" y1="305" x2="310" y2="370"/>
      <line x1="375" y1="180" x2="440" y2="135"/>
      <line x1="300" y1="245" x2="235" y2="215"/>
      <line x1="385" y1="305" x2="430" y2="355"/>
    </g>
    <g fill="#FFFFFF">
      <polygon points="0,-22 17,0 0,22 -17,0" transform="translate(375 180)"/>
      <polygon points="0,-20 15,0 0,20 -15,0" transform="translate(385 305)"/>
      <polygon points="0,-16 12,0 0,16 -12,0" transform="translate(300 245)"/>
      <polygon points="295,117 308,130 295,143 282,130"/>
      <polygon points="440,122 453,135 440,148 427,135"/>
      <polygon points="235,202 247,215 235,228 223,215"/>
      <polygon points="310,357 322,370 310,383 298,370"/>
      <polygon points="430,342 442,355 430,368 418,355"/>
    </g>
  </g>
  <path d="M 340 60 L 490 210 L 478 335 L 418 415 L 262 415 L 202 335 L 190 210 Z" fill="none" stroke="#0F4778" stroke-width="2.5" stroke-linejoin="miter"/>
</svg>
